<?xml version="1.0" encoding="utf-8"?>
<!-- Generator: Adobe Illustrator 17.0.0, SVG Export Plug-In . SVG Version: 6.00 Build 0)  -->
<!DOCTYPE svg PUBLIC "-//W3C//DTD SVG 1.1//EN" "http://www.w3.org/Graphics/SVG/1.1/DTD/svg11.dtd">
<svg version="1.1" id="Слой_1" xmlns="http://www.w3.org/2000/svg" xmlns:xlink="http://www.w3.org/1999/xlink" x="0px" y="0px"
	 width="80px" height="80px" viewBox="0 0 80 80" enable-background="new 0 0 80 80" xml:space="preserve">
<g>
	<path fill="#BF3817" d="M41.629,47.045l5.657-4.1c0.518,0.328,1.125,0.52,1.781,0.52c1.847,0,3.344-1.499,3.344-3.349
		c0-1.848-1.497-3.344-3.344-3.344c-1.847,0-3.346,1.496-3.346,3.344c0,0.138,0.012,0.274,0.028,0.415l-4.121,2.983v-9.308
		l5.699-4.13c0.512,0.31,1.101,0.492,1.74,0.492c1.845,0,3.344-1.499,3.344-3.344c0-1.847-1.499-3.349-3.344-3.349
		c-1.847,0-3.346,1.501-3.346,3.349c0,0.154,0.012,0.31,0.035,0.462l-4.128,2.99V16.55h-3.259v7.456l-4.151-3.003
		c0.039-0.203,0.059-0.405,0.059-0.62c0-1.845-1.499-3.344-3.346-3.344c-1.848,0-3.344,1.499-3.344,3.344
		c0,1.847,1.496,3.346,3.344,3.346c0.584,0,1.132-0.148,1.609-0.41l5.829,4.218v9.308l-4.144-3c0.031-0.182,0.051-0.371,0.051-0.561
		c0-1.852-1.499-3.349-3.346-3.349c-1.848,0-3.344,1.497-3.344,3.349c0,1.844,1.496,3.343,3.344,3.343
		c0.602,0,1.166-0.161,1.652-0.438l5.786,4.187v9.929l-4.141-3c0.028-0.182,0.049-0.364,0.049-0.551
		c0-1.848-1.501-3.347-3.346-3.347c-1.848,0-3.344,1.499-3.344,3.347c0,1.847,1.496,3.346,3.344,3.346
		c0.607,0,1.173-0.166,1.663-0.445l5.775,4.179v9.944h3.259V60.5l5.645-4.087c0.518,0.328,1.13,0.523,1.793,0.523
		c1.845,0,3.344-1.496,3.344-3.343c0-1.848-1.499-3.344-3.344-3.344c-1.847,0-3.346,1.496-3.346,3.344
		c0,0.133,0.01,0.266,0.023,0.397l-4.115,2.983V47.045z M41.629,47.045"/>
	<g>
		<defs>
			<rect id="SVGID_1_" x="0.106" y="0.171" width="79.788" height="79.984"/>
		</defs>
		<clipPath id="SVGID_2_">
			<use xlink:href="#SVGID_1_"  overflow="visible"/>
		</clipPath>
		<path clip-path="url(#SVGID_2_)" fill="#BF3817" d="M53.478,11.225c1.094-2.368,2.204-4.719,3.363-7.216
			c-12.832-5.404-25.339-5.143-37.29,1.976C7.992,12.857,1.723,23.306,0.106,36.76c2.743,0.245,5.339,0.473,7.935,0.686
			C9.461,17.118,31.927,1.527,53.478,11.225L53.478,11.225z M53.478,11.225"/>
		<path clip-path="url(#SVGID_2_)" fill="#BF3817" d="M79.241,33.314c-2.58,0.441-5.143,0.898-7.821,1.355
			c1.387,9.306-0.539,17.698-6.22,25.045c-5.649,7.314-13.225,11.331-22.482,12.36c0.229,2.628,0.457,5.191,0.669,7.755
			C62.767,79.143,83.535,59.681,79.241,33.314L79.241,33.314z M79.241,33.314"/>
	</g>
	<path fill="#BF3817" d="M7.926,43.045c-2.466,0.213-5.029,0.441-7.592,0.654C0.938,59.943,15.11,78.229,36.481,79.96
		c0.229-2.629,0.458-5.209,0.67-7.707C20.433,69.461,10.751,59.779,7.926,43.045L7.926,43.045z M7.926,43.045"/>
	<path fill="#BF3817" d="M65.233,20.759c1.991,2.58,3.526,5.42,4.718,8.555c2.482-0.898,4.931-1.796,7.495-2.727
		c-2.955-7.869-7.772-14.138-14.613-19.053c-1.518,2.171-3.02,4.294-4.571,6.515C60.907,15.992,63.257,18.196,65.233,20.759
		L65.233,20.759z M65.233,20.759"/>
</g>
</svg>
