<?xml version="1.0" encoding="utf-8"?>
<!-- Generator: Adobe Illustrator 17.0.0, SVG Export Plug-In . SVG Version: 6.00 Build 0)  -->
<!DOCTYPE svg PUBLIC "-//W3C//DTD SVG 1.1//EN" "http://www.w3.org/Graphics/SVG/1.1/DTD/svg11.dtd">
<svg version="1.1" id="Слой_1" xmlns="http://www.w3.org/2000/svg" xmlns:xlink="http://www.w3.org/1999/xlink" x="0px" y="0px"
	 width="24px" height="24px" viewBox="0 0 24 24" enable-background="new 0 0 24 24" xml:space="preserve">
<g opacity="0.54">
	<path d="M12.465,13.964l1.615-1.17c0.148,0.094,0.321,0.148,0.508,0.148c0.527,0,0.954-0.428,0.954-0.956
		c0-0.527-0.427-0.954-0.954-0.954c-0.527,0-0.955,0.427-0.955,0.954c0,0.04,0.004,0.078,0.008,0.118l-1.176,0.851V10.3l1.627-1.179
		c0.146,0.089,0.314,0.14,0.496,0.14c0.527,0,0.954-0.428,0.954-0.954c0-0.527-0.428-0.956-0.954-0.956
		c-0.527,0-0.955,0.429-0.955,0.956c0,0.044,0.004,0.089,0.01,0.132l-1.178,0.853V5.26h-0.93v2.128L10.35,6.531
		c0.011-0.058,0.017-0.116,0.017-0.177c0-0.527-0.428-0.954-0.955-0.954c-0.527,0-0.954,0.428-0.954,0.954
		c0,0.527,0.427,0.955,0.954,0.955c0.167,0,0.323-0.042,0.459-0.117l1.664,1.204v2.657l-1.183-0.856
		c0.009-0.052,0.015-0.106,0.015-0.16c0-0.529-0.428-0.956-0.955-0.956c-0.527,0-0.954,0.427-0.954,0.956
		c0,0.526,0.427,0.954,0.954,0.954c0.172,0,0.333-0.046,0.472-0.125l1.651,1.195v2.834l-1.182-0.856
		c0.008-0.052,0.014-0.104,0.014-0.157c0-0.527-0.429-0.955-0.955-0.955c-0.527,0-0.954,0.428-0.954,0.955
		c0,0.527,0.427,0.955,0.954,0.955c0.173,0,0.335-0.047,0.475-0.127l1.648,1.193v2.838h0.93v-0.935l1.611-1.167
		c0.148,0.094,0.322,0.149,0.512,0.149c0.527,0,0.954-0.427,0.954-0.954c0-0.527-0.428-0.954-0.954-0.954
		c-0.527,0-0.955,0.427-0.955,0.954c0,0.038,0.003,0.076,0.007,0.113l-1.175,0.851V13.964z M12.465,13.964"/>
	<g>
		<defs>
			<rect id="SVGID_1_" x="0.614" y="0.586" width="22.773" height="22.829"/>
		</defs>
		<clipPath id="SVGID_2_">
			<use xlink:href="#SVGID_1_"  overflow="visible"/>
		</clipPath>
		<path clip-path="url(#SVGID_2_)" d="M15.847,3.74c0.312-0.676,0.629-1.347,0.96-2.06C13.144,0.138,9.575,0.213,6.164,2.245
			c-3.299,1.962-5.089,4.944-5.55,8.784c0.783,0.07,1.524,0.135,2.265,0.196C3.284,5.423,9.696,0.972,15.847,3.74L15.847,3.74z
			 M15.847,3.74"/>
		<path clip-path="url(#SVGID_2_)" d="M23.2,10.045c-0.736,0.126-1.468,0.256-2.232,0.387c0.396,2.656-0.154,5.051-1.775,7.148
			c-1.612,2.088-3.775,3.234-6.417,3.528c0.065,0.75,0.13,1.482,0.191,2.213C18.498,23.126,24.426,17.571,23.2,10.045L23.2,10.045z
			 M23.2,10.045"/>
	</g>
	<path d="M2.846,12.822c-0.704,0.061-1.435,0.126-2.167,0.187c0.172,4.636,4.217,9.856,10.317,10.35
		c0.065-0.75,0.131-1.487,0.191-2.2C6.415,20.362,3.652,17.599,2.846,12.822L2.846,12.822z M2.846,12.822"/>
	<path d="M19.202,6.462c0.568,0.736,1.006,1.547,1.347,2.442c0.708-0.256,1.407-0.513,2.139-0.778
		c-0.843-2.246-2.218-4.035-4.171-5.438c-0.433,0.62-0.862,1.226-1.305,1.859C17.967,5.101,18.638,5.73,19.202,6.462L19.202,6.462z
		 M19.202,6.462"/>
</g>
</svg>
