<?xml version="1.0" encoding="utf-8"?>
<!-- Generator: Adobe Illustrator 17.0.0, SVG Export Plug-In . SVG Version: 6.00 Build 0)  -->
<!DOCTYPE svg PUBLIC "-//W3C//DTD SVG 1.1//EN" "http://www.w3.org/Graphics/SVG/1.1/DTD/svg11.dtd">
<svg version="1.1" id="Слой_1" xmlns="http://www.w3.org/2000/svg" xmlns:xlink="http://www.w3.org/1999/xlink" x="0px" y="0px"
	 width="94px" height="94px" viewBox="0 0 94 94" enable-background="new 0 0 94 94" xml:space="preserve">
<g>
	<g>
		<defs>
			<rect id="SVGID_1_" x="1.471" y="1.908" width="90.529" height="90.752"/>
		</defs>
		<clipPath id="SVGID_2_">
			<use xlink:href="#SVGID_1_"  overflow="visible"/>
		</clipPath>
		<path clip-path="url(#SVGID_2_)" fill="#FFFFFF" d="M62.027,14.449c1.241-2.687,2.501-5.354,3.816-8.188
			c-14.56-6.132-28.75-5.836-42.31,2.241C10.418,16.302,3.305,28.157,1.471,43.422c3.112,0.278,6.058,0.536,9.003,0.778
			C12.085,21.136,37.575,3.446,62.027,14.449L62.027,14.449z M62.027,14.449"/>
		<path clip-path="url(#SVGID_2_)" fill="#FFFFFF" d="M91.259,39.512c-2.927,0.5-5.836,1.019-8.873,1.538
			c1.574,10.559-0.611,20.08-7.058,28.416C68.919,77.765,60.323,82.323,49.82,83.49c0.26,2.982,0.518,5.89,0.759,8.799
			C72.568,91.511,96.131,69.429,91.259,39.512L91.259,39.512z M91.259,39.512"/>
	</g>
	<path fill="#FFFFFF" d="M10.344,50.553c-2.798,0.242-5.706,0.5-8.614,0.742c0.685,18.431,16.764,39.179,41.013,41.143
		c0.26-2.983,0.519-5.91,0.76-8.744C24.534,80.526,13.549,69.541,10.344,50.553L10.344,50.553z M10.344,50.553"/>
	<path fill="#FFFFFF" d="M75.365,25.267c2.26,2.927,4.001,6.15,5.353,9.707c2.816-1.019,5.594-2.038,8.503-3.094
		c-3.353-8.928-8.818-16.042-16.58-21.618c-1.722,2.464-3.427,4.873-5.186,7.392C70.456,19.858,73.124,22.359,75.365,25.267
		L75.365,25.267z M75.365,25.267"/>
	<path fill="none" stroke="#FFFFFF" stroke-width="2" stroke-miterlimit="10" d="M61.734,31.739
		c-2.385-2.385-5.194-4.082-8.178-5.093v6.392c1.434,0.719,2.808,1.655,3.996,2.854c5.98,5.969,5.98,15.683,0,21.648
		c-5.969,5.969-15.668,5.969-21.648,0c-5.969-5.965-5.969-15.679,0-21.648c0.011-0.015,0.056-0.045,0.086-0.071l3.539,3.524
		l-0.03-11.219l-11.204-0.015l3.528,3.524c-0.03,0.045-0.06,0.075-0.09,0.105c-8.264,8.264-8.264,21.693,0,29.972
		c8.294,8.279,21.708,8.279,30.002,0C69.998,53.432,70.013,40.004,61.734,31.739L61.734,31.739z M61.734,31.739"/>
</g>
</svg>
