<?xml version="1.0" encoding="utf-8"?>
<!-- Generator: Adobe Illustrator 17.0.0, SVG Export Plug-In . SVG Version: 6.00 Build 0)  -->
<!DOCTYPE svg PUBLIC "-//W3C//DTD SVG 1.1//EN" "http://www.w3.org/Graphics/SVG/1.1/DTD/svg11.dtd">
<svg version="1.1" id="Слой_1" xmlns="http://www.w3.org/2000/svg" xmlns:xlink="http://www.w3.org/1999/xlink" x="0px" y="0px"
	 width="64px" height="64px" viewBox="0 0 64 64" enable-background="new 0 0 64 64" xml:space="preserve">
<g>
	<g>
		<defs>
			<rect id="SVGID_1_" y="5.425" width="64" height="52.866"/>
		</defs>
		<clipPath id="SVGID_2_">
			<use xlink:href="#SVGID_1_"  overflow="visible"/>
		</clipPath>
		<path clip-path="url(#SVGID_2_)" fill="#FFFFFF" d="M10.437,40.993c-3.471,0.186-6.935,0.226-10.41,0.145
			c-0.1,1.12,0.082,2.126,0.338,3.21c3.562-0.247,7.098-0.626,10.627-1.167C10.684,42.462,10.5,41.726,10.437,40.993L10.437,40.993z
			 M10.437,40.993"/>
	</g>
	<path fill="#FFFFFF" d="M11.989,44.891c-3.441,0.837-6.905,1.501-10.407,2.032c0.755,1.158,1.693,2.121,2.697,3.061
		c3.258-0.895,6.46-1.917,9.622-3.108C13.191,46.29,12.542,45.627,11.989,44.891L11.989,44.891z M11.989,44.891"/>
	<path fill="#FFFFFF" d="M11.187,37.032c-2.968-0.391-5.911-0.88-8.846-1.465c-0.67,0.987-1.215,1.937-1.703,3.025
		c3.287,0.322,6.572,0.532,9.874,0.619C10.632,38.481,10.865,37.748,11.187,37.032L11.187,37.032z M11.187,37.032"/>
	<path fill="#FFFFFF" d="M15.964,48.319c-2.798,1.458-5.654,2.758-8.578,3.942c1.561,0.96,3.206,1.734,4.89,2.449
		c2.349-1.523,4.616-3.133,6.811-4.869C18.009,49.382,16.988,48.889,15.964,48.319L15.964,48.319z M15.964,48.319"/>
	<path fill="#FFFFFF" d="M16.929,56.291c2.11,0.562,4.225,1.007,6.379,1.359c0.923-1.985,1.793-3.987,2.612-6.017
		c-1.325-0.197-2.639-0.469-3.93-0.825C20.38,52.713,18.695,54.531,16.929,56.291L16.929,56.291z M16.929,56.291"/>
	<path fill="#FFFFFF" d="M63.839,41.138c-3.475,0.081-6.939,0.041-10.41-0.145c-0.063,0.733-0.247,1.469-0.556,2.188
		c3.529,0.541,7.066,0.92,10.628,1.166C63.757,43.264,63.939,42.258,63.839,41.138L63.839,41.138z M63.839,41.138"/>
	<path fill="#FFFFFF" d="M49.966,46.876c3.161,1.191,6.364,2.213,9.621,3.108c1.004-0.94,1.942-1.903,2.698-3.061
		c-3.502-0.531-6.967-1.195-10.408-2.033C51.325,45.627,50.676,46.29,49.966,46.876L49.966,46.876z M49.966,46.876"/>
	<path fill="#FFFFFF" d="M63.229,38.593c-0.489-1.088-1.034-2.038-1.703-3.025c-2.935,0.585-5.879,1.075-8.846,1.465
		c0.322,0.716,0.555,1.449,0.676,2.18C56.657,39.125,59.942,38.915,63.229,38.593L63.229,38.593z M63.229,38.593"/>
	<path fill="#FFFFFF" d="M44.779,49.84c2.195,1.737,4.463,3.348,6.812,4.87c1.684-0.715,3.329-1.489,4.89-2.449
		c-2.925-1.184-5.78-2.484-8.578-3.942C46.879,48.889,45.857,49.382,44.779,49.84L44.779,49.84z M44.779,49.84"/>
	<path fill="#FFFFFF" d="M37.946,51.633c0.819,2.03,1.689,4.031,2.612,6.017c2.155-0.352,4.269-0.797,6.379-1.359
		c-1.766-1.761-3.451-3.578-5.061-5.483C40.585,51.164,39.271,51.437,37.946,51.633L37.946,51.633z M37.946,51.633"/>
	<g>
		<path fill="#FFFFFF" d="M31.934,52.088c-0.722,0-1.954-0.075-2.674-0.115c-0.167,2.056-0.342,4.111-0.522,6.165
			c0,0,0.727,0.127,3.195,0.127c2.467,0,3.195-0.127,3.195-0.127c-0.18-2.054-0.354-4.11-0.522-6.165
			C33.887,52.014,32.655,52.088,31.934,52.088L31.934,52.088z M31.934,52.088"/>
		<path fill="#FFFFFF" d="M17.662,40.899l0.007,0.072c0.803,3.889,7.783,5.923,14.264,5.923c6.481,0,13.472-2.034,14.275-5.923
			l-0.001-3.501c0-1.06-0.445-2-1.217-2.815c0.626-0.638,1.053-1.356,1.218-2.152l-0.001-3.501c0-1.061-0.445-2-1.217-2.815
			c0.626-0.639,1.053-1.356,1.218-2.152l-0.001-3.502c0-1.059-0.445-1.999-1.217-2.813c0.626-0.639,1.053-1.357,1.218-2.153
			l-0.001-3.502c0-4.322-7.354-6.652-14.274-6.652c-6.919,0-14.274,2.331-14.274,6.653l0.003,3.427l0.008,0.074
			c0.164,0.793,0.588,1.508,1.21,2.145c-0.775,0.818-1.221,1.759-1.221,2.821l0.003,3.429l0.008,0.073
			c0.164,0.793,0.588,1.508,1.21,2.146c-0.775,0.817-1.221,1.759-1.221,2.821l0.003,3.428l0.008,0.073
			c0.164,0.793,0.588,1.508,1.21,2.146c-0.775,0.817-1.221,1.758-1.221,2.821L17.662,40.899z M31.933,8.558
			c6.904,0,11.13,2.272,11.13,3.509c0,1.236-4.226,3.508-11.13,3.508c-6.903,0-11.129-2.272-11.129-3.508
			C20.804,10.83,25.029,8.558,31.933,8.558L31.933,8.558z M21.525,19.504c2.789,1.313,6.68,1.987,10.408,1.987
			c3.725,0,7.62-0.673,10.41-1.985c0.468,0.372,0.719,0.731,0.719,1.028c0,1.238-4.225,3.509-11.129,3.509
			c-6.903,0-11.13-2.271-11.13-3.509C20.804,20.236,21.054,19.877,21.525,19.504L21.525,19.504z M21.525,27.971
			c2.789,1.312,6.68,1.988,10.408,1.988c3.725,0,7.62-0.674,10.41-1.986c0.468,0.372,0.719,0.731,0.719,1.029
			c0,1.236-4.225,3.509-11.129,3.509c-6.903,0-11.13-2.272-11.13-3.509C20.804,28.703,21.054,28.344,21.525,27.971L21.525,27.971z
			 M21.525,36.439c2.789,1.313,6.68,1.987,10.408,1.987c3.725,0,7.62-0.674,10.41-1.985c0.468,0.371,0.719,0.73,0.719,1.028
			c0,1.237-4.225,3.508-11.129,3.508c-6.903,0-11.13-2.271-11.13-3.508C20.804,37.171,21.054,36.812,21.525,36.439L21.525,36.439z
			 M21.525,36.439"/>
	</g>
</g>
</svg>
