<?xml version="1.0" encoding="utf-8"?>
<!-- Generator: Adobe Illustrator 17.0.0, SVG Export Plug-In . SVG Version: 6.00 Build 0)  -->
<!DOCTYPE svg PUBLIC "-//W3C//DTD SVG 1.1//EN" "http://www.w3.org/Graphics/SVG/1.1/DTD/svg11.dtd">
<svg version="1.1" id="Слой_1" xmlns="http://www.w3.org/2000/svg" xmlns:xlink="http://www.w3.org/1999/xlink" x="0px" y="0px"
	 width="80px" height="80px" viewBox="0 0 80 80" enable-background="new 0 0 80 80" xml:space="preserve">
<g>
	<path fill="#BF3817" d="M53.478,11.061c1.094-2.368,2.204-4.719,3.363-7.216c-12.832-5.404-25.339-5.143-37.29,1.976
		C7.992,12.694,1.723,23.143,0.106,36.596c2.743,0.245,5.339,0.473,7.934,0.686C9.461,16.955,31.927,1.363,53.478,11.061
		L53.478,11.061z M53.478,11.061"/>
	<path fill="#BF3817" d="M79.241,33.151c-2.58,0.441-5.143,0.898-7.821,1.355c1.387,9.306-0.539,17.698-6.22,25.044
		c-5.649,7.314-13.225,11.331-22.482,12.36c0.229,2.628,0.457,5.191,0.669,7.755C62.767,78.98,83.535,59.518,79.241,33.151
		L79.241,33.151z M79.241,33.151"/>
	<rect x="0.106" y="0.008" fill="none" width="79.788" height="79.984"/>
	<path fill="#BF3817" d="M7.927,42.881c-2.466,0.213-5.029,0.441-7.592,0.654C0.938,59.78,15.11,78.066,36.481,79.796
		c0.229-2.629,0.458-5.209,0.67-7.707C20.433,69.298,10.751,59.616,7.927,42.881L7.927,42.881z M7.927,42.881"/>
	<path fill="#BF3817" d="M65.233,20.596c1.991,2.58,3.526,5.42,4.718,8.555c2.482-0.898,4.931-1.796,7.494-2.727
		c-2.955-7.869-7.772-14.138-14.613-19.053c-1.518,2.171-3.02,4.294-4.571,6.515C60.907,15.829,63.257,18.033,65.233,20.596
		L65.233,20.596z M65.233,20.596"/>
	<path fill="#BF3817" d="M43.731,62.816v-3.118c2.661-0.506,5.241-1.567,7.559-3.167l2.22,2.22c0.833,0.816,2.155,0.816,2.988,0
		l2.302-2.302c0.816-0.832,0.816-2.155,0-2.988l-2.254-2.253c1.567-2.318,2.596-4.898,3.086-7.543h3.2
		c1.159,0,2.106-0.946,2.106-2.106v-3.265c0-1.159-0.947-2.105-2.106-2.105h-3.216c-0.506-2.645-1.551-5.192-3.119-7.494
		l2.286-2.286c0.816-0.832,0.816-2.155,0-2.988l-2.335-2.318c-0.832-0.816-2.155-0.816-2.987,0l-2.286,2.286
		c-2.301-1.567-4.865-2.612-7.51-3.118v-3.217c0-1.159-0.947-2.106-2.106-2.106h-3.265c-1.159,0-2.106,0.947-2.106,2.106v3.2
		c-2.645,0.489-5.225,1.534-7.543,3.102l-2.237-2.22c-0.832-0.816-2.155-0.816-2.988,0l-2.301,2.318
		c-0.816,0.833-0.816,2.155,0,2.988l2.22,2.22c-1.6,2.318-2.645,4.898-3.151,7.559H17.07c-1.159,0-2.106,0.947-2.106,2.106v3.265
		c0,1.159,0.947,2.106,2.106,2.106h3.102c0.506,2.678,1.551,5.273,3.135,7.592l-2.155,2.203c-0.816,0.833-0.816,2.156,0,2.988
		l2.301,2.302c0.833,0.816,2.156,0.816,2.988,0l2.188-2.188c2.334,1.583,4.931,2.628,7.608,3.134v3.102
		c0,1.159,0.947,2.106,2.106,2.106h3.265C42.784,64.922,43.731,63.975,43.731,62.816L43.731,62.816z M32.27,47.649
		c-4.245-4.244-4.262-11.134-0.017-15.379c4.245-4.244,11.134-4.261,15.379-0.016c4.245,4.245,4.262,11.134,0.017,15.379
		C43.42,51.878,36.531,51.894,32.27,47.649L32.27,47.649z M32.27,47.649"/>
</g>
</svg>
