<?xml version="1.0" encoding="utf-8"?>
<!-- Generator: Adobe Illustrator 17.0.0, SVG Export Plug-In . SVG Version: 6.00 Build 0)  -->
<!DOCTYPE svg PUBLIC "-//W3C//DTD SVG 1.1//EN" "http://www.w3.org/Graphics/SVG/1.1/DTD/svg11.dtd">
<svg version="1.1" id="Слой_1" xmlns="http://www.w3.org/2000/svg" xmlns:xlink="http://www.w3.org/1999/xlink" x="0px" y="0px"
	 width="24px" height="24px" viewBox="0 0 24 24" enable-background="new 0 0 24 24" xml:space="preserve">
<g opacity="0.54">
	<g>
		<defs>
			<rect id="SVGID_1_" x="0.612" y="0.586" width="22.773" height="22.829"/>
		</defs>
		<clipPath id="SVGID_2_">
			<use xlink:href="#SVGID_1_"  overflow="visible"/>
		</clipPath>
		<path clip-path="url(#SVGID_2_)" d="M15.846,3.74c0.312-0.676,0.629-1.347,0.96-2.06C13.143,0.138,9.573,0.213,6.162,2.245
			c-3.299,1.962-5.089,4.944-5.55,8.784c0.783,0.07,1.524,0.135,2.265,0.196C3.283,5.423,9.695,0.972,15.846,3.74L15.846,3.74z
			 M15.846,3.74"/>
		<path clip-path="url(#SVGID_2_)" d="M23.199,10.045c-0.736,0.126-1.468,0.256-2.232,0.387c0.396,2.656-0.154,5.051-1.775,7.148
			c-1.612,2.088-3.775,3.234-6.417,3.528c0.065,0.75,0.13,1.482,0.191,2.213C18.497,23.126,24.424,17.571,23.199,10.045
			L23.199,10.045z M23.199,10.045"/>
	</g>
	<path d="M2.845,12.822c-0.704,0.061-1.435,0.126-2.167,0.187c0.172,4.636,4.217,9.856,10.317,10.35
		c0.065-0.75,0.131-1.487,0.191-2.2C6.414,20.362,3.651,17.599,2.845,12.822L2.845,12.822z M2.845,12.822"/>
	<path d="M19.201,6.462c0.568,0.736,1.006,1.547,1.347,2.442c0.708-0.256,1.407-0.513,2.139-0.778
		c-0.843-2.246-2.218-4.035-4.171-5.438c-0.433,0.62-0.862,1.226-1.305,1.859C17.966,5.101,18.637,5.73,19.201,6.462L19.201,6.462z
		 M19.201,6.462"/>
	<path d="M13.064,18.512v-0.89c0.759-0.144,1.496-0.447,2.157-0.904l0.634,0.634c0.238,0.233,0.615,0.233,0.853,0l0.657-0.657
		c0.233-0.238,0.233-0.615,0-0.853l-0.643-0.643c0.447-0.662,0.741-1.398,0.881-2.153h0.913c0.331,0,0.601-0.27,0.601-0.601v-0.932
		c0-0.331-0.27-0.601-0.601-0.601h-0.918c-0.145-0.755-0.443-1.482-0.89-2.139l0.652-0.652c0.233-0.238,0.233-0.615,0-0.853
		l-0.666-0.662c-0.238-0.233-0.615-0.233-0.853,0l-0.653,0.652c-0.657-0.447-1.389-0.746-2.143-0.89V5.451
		c0-0.331-0.27-0.601-0.601-0.601h-0.932c-0.331,0-0.601,0.27-0.601,0.601v0.913c-0.755,0.14-1.491,0.438-2.153,0.885L8.119,6.616
		c-0.238-0.233-0.615-0.233-0.853,0L6.61,7.277c-0.233,0.238-0.233,0.615,0,0.853l0.634,0.634c-0.457,0.662-0.755,1.398-0.899,2.157
		h-0.89c-0.331,0-0.601,0.27-0.601,0.601v0.932c0,0.331,0.27,0.601,0.601,0.601h0.885c0.145,0.764,0.443,1.505,0.895,2.167
		l-0.615,0.629c-0.233,0.238-0.233,0.615,0,0.853l0.657,0.657c0.238,0.233,0.615,0.233,0.853,0l0.625-0.624
		c0.666,0.452,1.407,0.75,2.171,0.895v0.885c0,0.331,0.27,0.601,0.601,0.601h0.932C12.793,19.113,13.064,18.843,13.064,18.512
		L13.064,18.512z M9.793,14.183c-1.212-1.211-1.216-3.178-0.005-4.39c1.212-1.211,3.178-1.216,4.39-0.005
		c1.212,1.212,1.216,3.178,0.005,4.39C12.975,15.39,11.009,15.395,9.793,14.183L9.793,14.183z M9.793,14.183"/>
</g>
</svg>
