<?xml version="1.0" encoding="utf-8"?>
<!-- Generator: Adobe Illustrator 17.0.0, SVG Export Plug-In . SVG Version: 6.00 Build 0)  -->
<!DOCTYPE svg PUBLIC "-//W3C//DTD SVG 1.1//EN" "http://www.w3.org/Graphics/SVG/1.1/DTD/svg11.dtd">
<svg version="1.1" id="Слой_1" xmlns="http://www.w3.org/2000/svg" xmlns:xlink="http://www.w3.org/1999/xlink" x="0px" y="0px"
	 width="94px" height="94px" viewBox="0 0 94 94" enable-background="new 0 0 94 94" xml:space="preserve">
<g>
	<g>
		<defs>
			<rect id="SVGID_1_" x="1.092" y="0.98" width="91.815" height="92.041"/>
		</defs>
		<clipPath id="SVGID_2_">
			<use xlink:href="#SVGID_1_"  overflow="visible"/>
		</clipPath>
		<path clip-path="url(#SVGID_2_)" fill="#FFFFFF" d="M62.509,13.699c1.259-2.725,2.536-5.43,3.87-8.304
			C51.613-0.824,37.221-0.524,23.469,7.668C10.167,15.578,2.953,27.602,1.092,43.083c3.157,0.282,6.144,0.544,9.131,0.789
			C11.858,20.481,37.71,2.539,62.509,13.699L62.509,13.699z M62.509,13.699"/>
		<path clip-path="url(#SVGID_2_)" fill="#FFFFFF" d="M92.157,39.118c-2.969,0.507-5.919,1.034-9,1.56
			c1.596,10.709-0.62,20.365-7.158,28.82c-6.501,8.417-15.218,13.04-25.871,14.223c0.263,3.025,0.526,5.974,0.77,8.924
			C73.199,91.856,97.097,69.46,92.157,39.118L92.157,39.118z M92.157,39.118"/>
	</g>
	<path fill="#FFFFFF" d="M10.092,50.316c-2.837,0.245-5.787,0.507-8.736,0.752C2.05,69.761,18.358,90.804,42.951,92.795
		c0.263-3.026,0.527-5.994,0.771-8.868C24.483,80.714,13.342,69.573,10.092,50.316L10.092,50.316z M10.092,50.316"/>
	<path fill="#FFFFFF" d="M76.037,24.671c2.292,2.968,4.057,6.237,5.429,9.845c2.856-1.034,5.674-2.067,8.624-3.138
		c-3.401-9.055-8.943-16.269-16.815-21.925c-1.747,2.499-3.476,4.942-5.26,7.497C71.058,19.185,73.763,21.721,76.037,24.671
		L76.037,24.671z M76.037,24.671"/>
	<polygon fill="none" stroke="#FFFFFF" stroke-width="2" stroke-miterlimit="10" points="29.589,20.329 29.584,73.672 
		75.968,46.998 	"/>
</g>
</svg>
