<?xml version="1.0" encoding="utf-8"?>
<!-- Generator: Adobe Illustrator 17.0.0, SVG Export Plug-In . SVG Version: 6.00 Build 0)  -->
<!DOCTYPE svg PUBLIC "-//W3C//DTD SVG 1.1//EN" "http://www.w3.org/Graphics/SVG/1.1/DTD/svg11.dtd">
<svg version="1.1" id="Слой_1" xmlns="http://www.w3.org/2000/svg" xmlns:xlink="http://www.w3.org/1999/xlink" x="0px" y="0px"
	 width="94px" height="94px" viewBox="0 0 94 94" enable-background="new 0 0 94 94" xml:space="preserve">
<path d="M7,1"/>
<g>
	<g>
		<defs>
			<rect id="SVGID_1_" x="1" y="1" width="92" height="92"/>
		</defs>
		<clipPath id="SVGID_2_">
			<use xlink:href="#SVGID_1_"  overflow="visible"/>
		</clipPath>
		<path clip-path="url(#SVGID_2_)" fill="#BF3918" d="M62.54,13.714c1.261-2.723,2.541-5.427,3.878-8.3
			C51.622-0.803,37.201-0.503,23.421,7.686C10.093,15.592,2.864,27.61,1,43.085c3.163,0.281,6.156,0.544,9.149,0.788
			C11.787,20.493,37.691,2.559,62.54,13.714L62.54,13.714z M62.54,13.714"/>
		<path clip-path="url(#SVGID_2_)" fill="#BF3918" d="M92.247,39.122c-2.975,0.507-5.931,1.033-9.018,1.559
			c1.599,10.704-0.621,20.356-7.173,28.807c-6.514,8.413-15.249,13.034-25.923,14.217c0.264,3.023,0.527,5.971,0.771,8.92
			C73.252,91.836,97.198,69.45,92.247,39.122L92.247,39.122z M92.247,39.122"/>
	</g>
	<path fill="#BF3918" d="M10.017,50.314c-2.843,0.245-5.798,0.507-8.754,0.752C1.96,69.751,18.301,90.784,42.943,92.775
		c0.264-3.024,0.528-5.992,0.772-8.864C24.438,80.7,13.274,69.563,10.017,50.314L10.017,50.314z M10.017,50.314"/>
	<path fill="#BF3918" d="M76.095,24.681c2.296,2.967,4.066,6.234,5.44,9.841c2.861-1.033,5.685-2.066,8.642-3.137
		c-3.408-9.051-8.961-16.262-16.849-21.915c-1.75,2.498-3.483,4.94-5.271,7.493C71.106,19.197,73.817,21.733,76.095,24.681
		L76.095,24.681z M76.095,24.681"/>
	<rect x="29.518" y="29.561" fill="#BF3918" width="34.964" height="34.879"/>
</g>
</svg>
