<?xml version="1.0" encoding="utf-8"?>
<!-- Generator: Adobe Illustrator 17.0.0, SVG Export Plug-In . SVG Version: 6.00 Build 0)  -->
<!DOCTYPE svg PUBLIC "-//W3C//DTD SVG 1.1//EN" "http://www.w3.org/Graphics/SVG/1.1/DTD/svg11.dtd">
<svg version="1.1" id="Слой_1" xmlns="http://www.w3.org/2000/svg" xmlns:xlink="http://www.w3.org/1999/xlink" x="0px" y="0px"
	 width="94px" height="94px" viewBox="0 0 94 94" enable-background="new 0 0 94 94" xml:space="preserve">
<g>
	<g>
		<defs>
			<rect id="SVGID_1_" x="1.616" y="1.505" width="90.767" height="90.99"/>
		</defs>
		<clipPath id="SVGID_2_">
			<use xlink:href="#SVGID_1_"  overflow="visible"/>
		</clipPath>
		<path clip-path="url(#SVGID_2_)" fill="#FFFFFF" d="M62.332,14.079c1.244-2.694,2.507-5.368,3.826-8.209
			C51.56-0.278,37.333,0.019,23.737,8.117C10.588,15.937,3.456,27.823,1.616,43.128c3.121,0.278,6.073,0.538,9.026,0.78
			C12.259,20.784,37.816,3.047,62.332,14.079L62.332,14.079z M62.332,14.079"/>
		<path clip-path="url(#SVGID_2_)" fill="#FFFFFF" d="M91.641,39.208c-2.935,0.501-5.851,1.022-8.897,1.542
			c1.578,10.587-0.613,20.133-7.076,28.491c-6.426,8.321-15.045,12.891-25.575,14.061c0.26,2.99,0.52,5.906,0.761,8.822
			C72.9,91.344,96.526,69.204,91.641,39.208L91.641,39.208z M91.641,39.208"/>
	</g>
	<path fill="#FFFFFF" d="M10.513,50.278c-2.805,0.242-5.721,0.501-8.636,0.744c0.687,18.48,16.808,39.282,41.12,41.251
		c0.26-2.991,0.521-5.926,0.762-8.767C24.741,80.33,13.726,69.315,10.513,50.278L10.513,50.278z M10.513,50.278"/>
	<path fill="#FFFFFF" d="M75.705,24.926c2.265,2.935,4.011,6.166,5.367,9.733c2.823-1.022,5.609-2.043,8.526-3.102
		c-3.362-8.952-8.841-16.084-16.623-21.675c-1.727,2.47-3.436,4.885-5.2,7.411C70.783,19.502,73.458,22.01,75.705,24.926
		L75.705,24.926z M75.705,24.926"/>
	<rect x="29.752" y="29.752" fill="#FFFFFF" width="34.496" height="34.496"/>
</g>
</svg>
